<svg width="914" height="400" fill="none" xmlns="http://www.w3.org/2000/svg">
  <path fill="#fff" d="M0 0h914v400H0z"/>
  <path d="M339.232 211h-5.073l-3.049-5.045a16.194 16.194 0 00-.656-1.025 5.096 5.096 0 00-.642-.766 2.217 2.217 0 00-.67-.492 1.601 1.601 0 00-.752-.178h-1.19V211h-4.416v-19.605h7c4.758 0 7.137 1.777 7.137 5.332 0 .683-.105 1.317-.314 1.9a5.294 5.294 0 01-.889 1.559 5.621 5.621 0 01-1.395 1.203 7.056 7.056 0 01-1.804.793v.054c.291.091.574.242.847.452.274.2.538.437.793.71.256.274.497.57.725.889.237.31.451.615.642.916l3.706 5.797zM327.2 194.703v5.455h1.914c.948 0 1.709-.273 2.284-.82.583-.556.875-1.244.875-2.065 0-1.713-1.026-2.57-3.077-2.57H327.2zM340.517 211v-19.605h6.946c6.963 0 10.445 3.185 10.445 9.556 0 3.054-.953 5.492-2.858 7.315-1.895 1.823-4.425 2.734-7.587 2.734h-6.946zm4.416-16.01v12.428h2.188c1.914 0 3.413-.574 4.498-1.723 1.094-1.148 1.64-2.711 1.64-4.689 0-1.869-.542-3.336-1.626-4.402-1.076-1.076-2.589-1.614-4.54-1.614h-2.16zm14.766 15.258v-4.375a8.532 8.532 0 002.584 1.504c.93.328 1.869.492 2.817.492a6.17 6.17 0 001.449-.15c.419-.101.766-.237 1.039-.41.283-.183.492-.392.629-.629.137-.246.205-.511.205-.793a1.7 1.7 0 00-.328-1.026c-.219-.3-.52-.578-.902-.834a9.086 9.086 0 00-1.34-.738 48 48 0 00-1.682-.725c-1.531-.638-2.675-1.417-3.431-2.337-.748-.921-1.122-2.033-1.122-3.336 0-1.021.206-1.896.616-2.625a5.223 5.223 0 011.668-1.819c.711-.474 1.531-.82 2.461-1.039a12.357 12.357 0 012.953-.342c1.021 0 1.923.064 2.707.192.793.118 1.522.305 2.187.56v4.088a6.444 6.444 0 00-1.08-.601 7.672 7.672 0 00-1.189-.424 8.438 8.438 0 00-1.231-.26 8.459 8.459 0 00-1.148-.082c-.502 0-.957.05-1.367.15a3.398 3.398 0 00-1.039.397 1.977 1.977 0 00-.657.629 1.44 1.44 0 00-.232.806c0 .329.086.625.26.889.173.255.419.501.738.738.319.228.706.456 1.162.684.456.219.971.447 1.545.684.784.328 1.486.679 2.105 1.052.629.365 1.167.78 1.614 1.244.446.465.788.999 1.025 1.6.237.593.356 1.285.356 2.078 0 1.094-.21 2.015-.629 2.762a5.079 5.079 0 01-1.682 1.805c-.711.455-1.54.783-2.488.984-.939.201-1.933.301-2.981.301a16.66 16.66 0 01-3.076-.274c-.966-.182-1.805-.455-2.516-.82zm25.336-6.877V211h-1.819v-19.605h5.059c1.03 0 1.941.127 2.734.382.793.256 1.463.625 2.01 1.108a4.64 4.64 0 011.244 1.777c.283.702.424 1.504.424 2.406 0 .912-.16 1.755-.479 2.53a5.743 5.743 0 01-1.38 1.996c-.593.556-1.318.993-2.174 1.312-.857.31-1.828.465-2.912.465h-2.707zm0-10.309v8.641h2.597c1.686 0 2.967-.392 3.842-1.176.875-.784 1.312-1.891 1.312-3.322 0-2.762-1.613-4.143-4.839-4.143h-2.912zM404.982 211v-2.488h-.054c-.456.893-1.08 1.586-1.873 2.078-.784.492-1.673.738-2.666.738a5.524 5.524 0 01-1.832-.287 4.043 4.043 0 01-1.381-.807 3.756 3.756 0 01-.875-1.271 4.265 4.265 0 01-.301-1.627c0-1.267.392-2.274 1.176-3.022.784-.756 1.968-1.248 3.554-1.476l4.252-.615c0-2.689-1.043-4.034-3.13-4.034-1.632 0-3.145.597-4.54 1.791v-1.914a5.7 5.7 0 01.985-.56 8.276 8.276 0 011.176-.438c.41-.127.829-.223 1.257-.287a7.734 7.734 0 011.272-.109c1.558 0 2.734.437 3.527 1.312.802.875 1.203 2.179 1.203 3.911V211h-1.75zm-3.609-6.795c-.629.091-1.167.205-1.613.342-.447.137-.816.323-1.108.56a2.007 2.007 0 00-.642.862c-.137.337-.205.756-.205 1.258 0 .373.063.72.191 1.039.137.319.328.597.574.834.255.227.561.405.916.533.365.127.775.191 1.231.191a3.995 3.995 0 003.049-1.34c.382-.419.679-.92.888-1.504a5.36 5.36 0 00.328-1.9v-1.381l-3.609.506zm13.071 9.338c-.547 1.367-1.176 2.379-1.887 3.035-.711.665-1.572.998-2.584.998-.501 0-.925-.059-1.271-.178v-1.64c.2.073.401.127.601.164.21.036.419.055.629.055a2.2 2.2 0 001.49-.547c.429-.356.798-.898 1.108-1.627l1.217-2.871L408.36 197h1.941l4.006 11.088c.055.146.105.314.151.506.054.182.104.364.15.547h.068c.046-.155.087-.31.123-.465.046-.164.105-.342.178-.533L419.229 197h1.846l-6.631 16.543zm8.504-2.543v-20.727h1.75V211h-1.75zm11.431.328c-1.04 0-1.974-.173-2.803-.519a6.044 6.044 0 01-2.106-1.463 6.55 6.55 0 01-1.34-2.284c-.309-.884-.464-1.863-.464-2.939 0-1.167.164-2.21.492-3.131.328-.92.793-1.7 1.394-2.338a6.012 6.012 0 012.202-1.476c.856-.338 1.813-.506 2.871-.506 1.011 0 1.923.168 2.734.506a5.507 5.507 0 012.064 1.435c.566.629.998 1.395 1.299 2.297.301.902.451 1.928.451 3.076 0 1.094-.159 2.092-.478 2.994a6.671 6.671 0 01-1.34 2.311 5.964 5.964 0 01-2.133 1.504c-.838.355-1.786.533-2.843.533zm.136-13.139c-.765 0-1.458.133-2.078.397a4.39 4.39 0 00-1.6 1.162c-.437.501-.774 1.121-1.011 1.859-.237.73-.356 1.559-.356 2.489 0 .875.119 1.663.356 2.365a5.4 5.4 0 00.998 1.805c.437.501.966.888 1.586 1.162.62.264 1.312.396 2.078.396.784 0 1.476-.127 2.078-.383a4.196 4.196 0 001.531-1.134c.42-.502.734-1.112.944-1.832.218-.72.328-1.541.328-2.461 0-1.887-.42-3.327-1.258-4.321-.839-1.002-2.037-1.504-3.596-1.504zM451.824 211v-2.488h-.054c-.456.893-1.08 1.586-1.873 2.078-.784.492-1.673.738-2.666.738a5.524 5.524 0 01-1.832-.287 4.043 4.043 0 01-1.381-.807 3.756 3.756 0 01-.875-1.271 4.265 4.265 0 01-.301-1.627c0-1.267.392-2.274 1.176-3.022.784-.756 1.968-1.248 3.554-1.476l4.252-.615c0-2.689-1.043-4.034-3.13-4.034-1.632 0-3.145.597-4.54 1.791v-1.914a5.7 5.7 0 01.985-.56 8.276 8.276 0 011.176-.438c.41-.127.829-.223 1.257-.287a7.734 7.734 0 011.272-.109c1.558 0 2.734.437 3.527 1.312.802.875 1.203 2.179 1.203 3.911V211h-1.75zm-3.609-6.795c-.629.091-1.167.205-1.613.342-.447.137-.816.323-1.108.56a2.007 2.007 0 00-.642.862c-.137.337-.205.756-.205 1.258 0 .373.063.72.191 1.039.137.319.328.597.574.834.255.227.561.405.916.533.365.127.775.191 1.231.191a3.995 3.995 0 003.049-1.34c.382-.419.679-.92.888-1.504a5.36 5.36 0 00.328-1.9v-1.381l-3.609.506zM467.042 211v-2.461h-.055a5.014 5.014 0 01-1.996 2.065c-.857.483-1.832.724-2.926.724-.875 0-1.672-.159-2.392-.478a5.21 5.21 0 01-1.832-1.409c-.511-.61-.907-1.349-1.19-2.214-.273-.866-.41-1.846-.41-2.94 0-1.13.15-2.16.451-3.09.31-.939.743-1.741 1.299-2.406a5.826 5.826 0 012.023-1.559c.793-.373 1.673-.56 2.639-.56 2.014 0 3.459.807 4.334 2.42h.055v-8.819h1.75V211h-1.75zm0-8.449c0-.611-.105-1.181-.315-1.709a4.07 4.07 0 00-2.228-2.311 4.244 4.244 0 00-1.723-.342c-.693 0-1.331.137-1.914.411a4.213 4.213 0 00-1.504 1.189c-.41.51-.734 1.135-.971 1.873-.227.738-.341 1.577-.341 2.516 0 .884.104 1.677.314 2.379.21.701.506 1.294.889 1.777a3.98 3.98 0 001.394 1.107 4.115 4.115 0 001.791.383c.711 0 1.349-.127 1.914-.383a4.13 4.13 0 001.45-1.052c.401-.447.706-.971.916-1.573a5.611 5.611 0 00.328-1.927v-2.338zm27.522 7.095c-2.014 1.131-4.147 1.696-6.398 1.696-1.422 0-2.698-.242-3.828-.725a8.41 8.41 0 01-2.885-2.037c-.793-.875-1.404-1.914-1.832-3.117-.419-1.212-.629-2.543-.629-3.992 0-.957.1-1.878.301-2.762.209-.884.51-1.714.902-2.488a9.767 9.767 0 011.463-2.106 9.188 9.188 0 011.969-1.627 9.612 9.612 0 012.461-1.052c.893-.247 1.855-.37 2.885-.37 1.941 0 3.673.347 5.195 1.039v2.01a10.996 10.996 0 00-5.414-1.394c-1.194 0-2.274.218-3.24.656a7.311 7.311 0 00-2.475 1.805c-.675.765-1.199 1.672-1.572 2.72-.374 1.039-.565 2.17-.575 3.391-.009 1.212.146 2.333.465 3.363.328 1.021.811 1.905 1.449 2.653a6.623 6.623 0 002.366 1.75c.939.419 2.023.629 3.254.629 1.658 0 3.099-.347 4.32-1.04v-5.974h-4.457v-1.654h6.275v8.626zm4.526-5.332c.009.857.123 1.627.342 2.311.219.684.533 1.262.943 1.736a4.14 4.14 0 001.491 1.094c.592.246 1.257.369 1.996.369 1.577 0 3.067-.551 4.47-1.654v1.723c-1.339.957-2.962 1.435-4.867 1.435-.939 0-1.791-.164-2.556-.492a5.322 5.322 0 01-1.955-1.422c-.538-.629-.953-1.399-1.245-2.31-.291-.912-.437-1.951-.437-3.118 0-1.048.159-2.019.478-2.912.319-.893.761-1.663 1.327-2.31a5.995 5.995 0 012.009-1.532 5.788 5.788 0 012.543-.56c.903 0 1.7.159 2.393.478.693.31 1.271.757 1.736 1.34.474.584.834 1.295 1.08 2.133.246.839.369 1.777.369 2.816v.875H499.09zm8.313-1.531c-.028-1.458-.374-2.588-1.039-3.39-.666-.803-1.591-1.204-2.776-1.204-.592 0-1.144.105-1.654.315-.501.21-.943.515-1.326.916a4.886 4.886 0 00-.957 1.449 7.38 7.38 0 00-.52 1.914h8.272zM521.526 211v-8.066c0-3.163-1.148-4.745-3.445-4.745-.611 0-1.176.123-1.695.37-.52.237-.971.569-1.354.998-.374.428-.67.938-.888 1.531a5.57 5.57 0 00-.315 1.9V211h-1.75v-14h1.75v2.434h.055c1.039-1.842 2.602-2.762 4.689-2.762 1.531 0 2.698.497 3.5 1.49.802.994 1.203 2.429 1.203 4.307V211h-1.75zm6.249-6.686c.009.857.123 1.627.342 2.311.218.684.533 1.262.943 1.736.41.474.907.839 1.49 1.094.593.246 1.258.369 1.996.369 1.577 0 3.067-.551 4.471-1.654v1.723c-1.34.957-2.962 1.435-4.867 1.435-.939 0-1.791-.164-2.557-.492a5.339 5.339 0 01-1.955-1.422c-.538-.629-.952-1.399-1.244-2.31-.292-.912-.437-1.951-.437-3.118 0-1.048.159-2.019.478-2.912.319-.893.761-1.663 1.326-2.31a5.989 5.989 0 012.01-1.532 5.785 5.785 0 012.543-.56c.902 0 1.7.159 2.393.478.692.31 1.271.757 1.736 1.34.474.584.834 1.295 1.08 2.133.246.839.369 1.777.369 2.816v.875h-10.117zm8.312-1.531c-.027-1.458-.373-2.588-1.039-3.39-.665-.803-1.59-1.204-2.775-1.204-.592 0-1.144.105-1.654.315-.502.21-.944.515-1.327.916a4.925 4.925 0 00-.957 1.449 7.341 7.341 0 00-.519 1.914h8.271zm11.622-3.992c-.41-.301-.939-.451-1.586-.451a2.66 2.66 0 00-1.23.273 3.1 3.1 0 00-.944.711 4.558 4.558 0 00-.683 1.053 7.806 7.806 0 00-.451 1.23c-.11.429-.192.862-.247 1.299-.045.438-.068.852-.068 1.244V211h-1.736v-14h1.736v2.994h.055c.164-.51.369-.966.615-1.367.255-.41.547-.752.875-1.025a3.584 3.584 0 011.066-.643 3.497 3.497 0 011.231-.219c.282 0 .533.018.752.055.228.036.433.091.615.164v1.832zM557.758 211v-2.488h-.054c-.456.893-1.08 1.586-1.873 2.078-.784.492-1.673.738-2.666.738a5.528 5.528 0 01-1.832-.287 4.043 4.043 0 01-1.381-.807 3.756 3.756 0 01-.875-1.271 4.265 4.265 0 01-.301-1.627c0-1.267.392-2.274 1.176-3.022.784-.756 1.969-1.248 3.554-1.476l4.252-.615c0-2.689-1.043-4.034-3.13-4.034-1.632 0-3.145.597-4.539 1.791v-1.914c.291-.209.619-.396.984-.56a8.321 8.321 0 011.176-.438c.41-.127.829-.223 1.257-.287a7.734 7.734 0 011.272-.109c1.559 0 2.734.437 3.527 1.312.802.875 1.203 2.179 1.203 3.911V211h-1.75zm-3.609-6.795c-.629.091-1.167.205-1.613.342-.447.137-.816.323-1.108.56a2.007 2.007 0 00-.642.862c-.137.337-.205.756-.205 1.258 0 .373.063.72.191 1.039.137.319.328.597.574.834.256.227.561.405.916.533.365.127.775.191 1.231.191a3.995 3.995 0 003.049-1.34c.382-.419.679-.92.888-1.504a5.36 5.36 0 00.328-1.9v-1.381l-3.609.506zm15.026 6.631a4.34 4.34 0 01-1.969.451c-2.26 0-3.39-1.303-3.39-3.91v-8.846h-2.461V197h2.461v-3.527l1.75-.575V197h3.609v1.531h-3.609v8.573c0 .947.155 1.631.464 2.05.31.42.834.629 1.573.629.547 0 1.071-.164 1.572-.492v1.545zm7.848.492c-1.039 0-1.973-.173-2.803-.519a6.04 6.04 0 01-2.105-1.463 6.55 6.55 0 01-1.34-2.284c-.31-.884-.465-1.863-.465-2.939 0-1.167.164-2.21.492-3.131.329-.92.793-1.7 1.395-2.338a6.008 6.008 0 012.201-1.476c.857-.338 1.814-.506 2.871-.506 1.012 0 1.923.168 2.735.506a5.507 5.507 0 012.064 1.435c.565.629.998 1.395 1.299 2.297.301.902.451 1.928.451 3.076 0 1.094-.159 2.092-.478 2.994a6.671 6.671 0 01-1.34 2.311 5.981 5.981 0 01-2.133 1.504c-.839.355-1.787.533-2.844.533zm.137-13.139c-.766 0-1.458.133-2.078.397a4.39 4.39 0 00-1.6 1.162c-.437.501-.775 1.121-1.012 1.859-.237.73-.355 1.559-.355 2.489 0 .875.118 1.663.355 2.365.237.702.57 1.303.999 1.805.437.501.966.888 1.585 1.162.62.264 1.313.396 2.079.396.783 0 1.476-.127 2.078-.383a4.205 4.205 0 001.531-1.134c.419-.502.734-1.112.943-1.832.219-.72.328-1.541.328-2.461 0-1.887-.419-3.327-1.257-4.321-.839-1.002-2.037-1.504-3.596-1.504zm16.571.602c-.41-.301-.939-.451-1.586-.451-.465 0-.875.091-1.231.273-.355.173-.67.41-.943.711a4.594 4.594 0 00-.684 1.053 8.01 8.01 0 00-.451 1.23c-.109.429-.191.862-.246 1.299-.045.438-.068.852-.068 1.244V211h-1.737v-14h1.737v2.994h.054c.165-.51.37-.966.616-1.367.255-.41.547-.752.875-1.025a3.572 3.572 0 011.066-.643 3.497 3.497 0 011.231-.219c.282 0 .533.018.752.055.227.036.432.091.615.164v1.832z" fill="#333"/>
</svg>
